<svg enable-background="new 0 0 58 60.02" height="1024" viewBox="0 0 58 60.02" width="1024" xmlns="http://www.w3.org/2000/svg"><path d="m43 11h-11c-.552 0-1-.447-1-1v-9c0-.387.223-.738.572-.903.35-.167.762-.114 1.062.129l11 9c.327.269.451.713.309 1.11-.143.399-.52.664-.943.664zm-10-2h7.198l-7.198-5.889z"/><path d="m29 18h-7c-.552 0-1-.447-1-1s.448-1 1-1h7c.552 0 1 .447 1 1s-.448 1-1 1z"/><path d="m18 18h-12c-.552 0-1-.447-1-1s.448-1 1-1h12c.552 0 1 .447 1 1s-.448 1-1 1z"/><path d="m21 28h-15c-.552 0-1-.447-1-1s.448-1 1-1h15c.552 0 1 .447 1 1s-.448 1-1 1z"/><path d="m35 18h-2c-.552 0-1-.447-1-1s.448-1 1-1h2c.552 0 1 .447 1 1s-.448 1-1 1z"/><path d="m20 23h-7c-.552 0-1-.447-1-1s.448-1 1-1h7c.552 0 1 .447 1 1s-.448 1-1 1z"/><path d="m35 23h-11c-.552 0-1-.447-1-1s.448-1 1-1h11c.552 0 1 .447 1 1s-.448 1-1 1z"/><path d="m13 13h-7c-.552 0-1-.447-1-1s.448-1 1-1h7c.552 0 1 .447 1 1s-.448 1-1 1z"/><path d="m28 13h-11c-.552 0-1-.447-1-1s.448-1 1-1h11c.552 0 1 .447 1 1s-.448 1-1 1z"/><path d="m19 38h-13c-.552 0-1-.447-1-1s.448-1 1-1h13c.552 0 1 .447 1 1s-.448 1-1 1z"/><path d="m13 33h-7c-.552 0-1-.447-1-1s.448-1 1-1h7c.552 0 1 .447 1 1s-.448 1-1 1z"/><path d="m18 48h-12c-.552 0-1-.447-1-1s.448-1 1-1h12c.552 0 1 .447 1 1s-.448 1-1 1z"/><path d="m13 43h-7c-.552 0-1-.447-1-1s.448-1 1-1h7c.552 0 1 .447 1 1s-.448 1-1 1z"/><path d="m9 23h-3c-.552 0-1-.447-1-1s.448-1 1-1h3c.552 0 1 .447 1 1s-.448 1-1 1z"/><path d="m25 8h-12c-.552 0-1-.447-1-1s.448-1 1-1h12c.552 0 1 .447 1 1s-.448 1-1 1z"/><path d="m9 8h-3c-.552 0-1-.447-1-1s.448-1 1-1h3c.552 0 1 .447 1 1s-.448 1-1 1z"/><path d="m40 60c-9.925 0-18-8.075-18-18s8.075-18 18-18 18 8.075 18 18-8.075 18-18 18zm0-34c-8.823 0-16 7.178-16 16s7.177 16 16 16 16-7.178 16-16-7.177-16-16-16z"/><path d="m27 43c-.552 0-1-.447-1-1 0-7.72 6.28-14 14-14 .552 0 1 .447 1 1s-.448 1-1 1c-6.617 0-12 5.383-12 12 0 .553-.448 1-1 1z"/><path d="m40 56c-.552 0-1-.447-1-1s.448-1 1-1c6.617 0 12-5.383 12-12 0-.553.448-1 1-1s1 .447 1 1c0 7.72-6.28 14-14 14z"/><path d="m45 45c-.125 0-.251-.023-.371-.071l-4.629-1.852-4.629 1.852c-.385.152-.826.054-1.107-.252-.281-.305-.344-.753-.159-1.124l5-10c.339-.678 1.45-.678 1.789 0l5 10c.186.371.123.819-.159 1.124-.192.21-.461.323-.735.323zm-5-4c.126 0 .252.023.371.071l2.558 1.023-2.929-5.857-2.929 5.858 2.558-1.023c.119-.048.245-.072.371-.072z"/><path d="m40 51c-.297 0-.578-.132-.768-.359l-5-6c-.205-.246-.28-.575-.201-.886s.301-.564.598-.684l5-2c.238-.096.504-.096.743 0l5 2c.297.119.52.373.598.684s.004.64-.201.886l-5 6c-.191.227-.472.359-.769.359zm-3.351-6.583 3.351 4.021 3.351-4.021-3.351-1.34z"/><path d="m39.038 60.02c-.031 0-.062-.001-.095-.003-.062-.003-.12-.009-.175-.017h-33.768c-.552 0-1-.447-1-1v-4c0-.553.448-1 1-1h24.057c.236 0 .464.083.645.235 2.407 2.029 5.999 3.473 9.376 3.768.023.002.046.004.068.008 1.032.134.999.984.992 1.083-.008.097-.1.926-1.1.926zm-33.038-2.02h25.867c-1.152-.57-2.223-1.243-3.168-2h-22.699z"/><path d="m29.057 56h-28.057c-.552 0-1-.447-1-1v-54c0-.553.448-1 1-1h31c.231 0 .455.08.633.226l11 9c.232.19.367.474.367.774v15.28c0 .296-.131.576-.358.767s-.526.271-.818.218c-.999-.178-1.923-.265-2.824-.265-8.823 0-16 7.178-16 16 0 4.723 2.078 9.183 5.701 12.235.321.271.439.713.295 1.107-.144.395-.519.658-.939.658zm-27.057-2h24.592c-2.943-3.282-4.592-7.536-4.592-12 0-9.925 8.075-18 18-18 .654 0 1.315.04 2 .121v-13.647l-10.357-8.474h-29.643z"/></svg>