<?xml version="1.0" encoding="iso-8859-1"?>
<!-- Generator: Adobe Illustrator 19.0.0, SVG Export Plug-In . SVG Version: 6.00 Build 0)  -->
<svg version="1.1" id="Capa_1" xmlns="http://www.w3.org/2000/svg" xmlns:xlink="http://www.w3.org/1999/xlink" x="0px" y="0px"
	 viewBox="0 0 480.106 480.106" style="enable-background:new 0 0 480.106 480.106;" xml:space="preserve">
<g>
	<g>
		<path d="M447.326,139.364C412.916,55.167,331.009,0.137,240.052,0.105C137.954,0.384,48.889,69.486,23.252,168.313l-10.936-6.96
			c-3.738-2.355-8.678-1.233-11.033,2.505c-0.801,1.272-1.228,2.744-1.231,4.247v112c-0.002,4.418,3.578,8.001,7.997,8.003
			c1.523,0.001,3.015-0.433,4.299-1.251l10.928-6.96C41.03,348.38,90.052,404.474,155.54,431.241l-18.648,37.288
			c-1.975,3.952-0.372,8.757,3.58,10.732c1.112,0.555,2.337,0.844,3.58,0.844h192c4.418,0.024,8.02-3.538,8.044-7.956
			c0.007-1.256-0.282-2.496-0.844-3.62l-18.536-37.072C439.233,384.656,494.128,253.881,447.326,139.364z M16.052,265.537v-82.864
			l65.096,41.432L16.052,265.537z M405.548,283.993l-144.592-59.888l144.592-59.888
			C419.551,202.915,419.551,245.296,405.548,283.993z M254.836,238.889l144.552,59.872c-17.539,37.202-47.478,67.141-84.68,84.68
			v-0.032L254.836,238.889z M240.052,245.009l59.888,144.592c-38.678,14.055-81.076,14.004-119.72-0.144L240.052,245.009z
			 M165.444,383.305c-37.154-17.526-67.059-47.425-84.592-84.576l144.416-59.84L165.444,383.305z M254.836,209.321l59.872-144.552
			c37.202,17.539,67.141,47.478,84.68,84.68L254.836,209.321z M240.052,203.201L180.22,58.753
			c38.644-14.148,81.042-14.199,119.72-0.144L240.052,203.201z M225.268,209.329L80.852,149.481
			c17.527-37.155,47.434-67.056,84.592-84.576L225.268,209.329z M219.148,224.105l-144.48,59.848
			c-3.718-10.235-6.469-20.796-8.216-31.544l33.872-21.552c3.729-2.37,4.831-7.314,2.461-11.043c-0.63-0.991-1.47-1.831-2.461-2.461
			l-33.872-21.552c1.747-10.748,4.498-21.309,8.216-31.544L219.148,224.105z M156.996,464.105l13.64-27.28
			c45.086,14.977,93.795,15.041,138.92,0.184l13.552,27.096H156.996z M240.052,432.105c-96.763-0.224-180.65-67.006-202.56-161.256
			l14.4-9.168C72.644,365.67,173.767,433.145,277.755,412.393c103.988-20.753,171.464-121.875,150.711-225.863
			C407.713,82.541,306.591,15.066,202.603,35.818c-76.069,15.181-135.53,74.643-150.711,150.711l-14.4-9.176
			C63.339,65.451,175.007-4.311,286.909,21.536s181.664,137.515,155.817,249.417C420.932,365.309,336.892,432.132,240.052,432.105z"
			/>
	</g>
</g>
<g>
	<g>
		<path d="M472.524,116.745c-18.73-40.375-47.608-75.205-83.816-101.088c-3.594-2.571-8.593-1.742-11.164,1.852
			c-2.571,3.594-1.742,8.593,1.852,11.164c33.962,24.263,61.045,56.925,78.6,94.792c1.31,2.83,4.145,4.641,7.264,4.64
			c1.161,0.003,2.309-0.251,3.36-0.744C472.629,125.507,474.376,120.755,472.524,116.745z"/>
	</g>
</g>
<g>
	<g>
		<path d="M457.395,35.142c-0.083-0.1-0.168-0.197-0.255-0.293c-10.356-11.875-21.665-22.882-33.816-32.912
			c-3.348-2.883-8.4-2.505-11.282,0.843c-2.883,3.348-2.505,8.4,0.843,11.282c0.084,0.072,0.169,0.142,0.255,0.211
			c11.471,9.482,22.154,19.879,31.944,31.088c2.822,3.4,7.866,3.868,11.265,1.046C459.749,43.585,460.217,38.542,457.395,35.142z"/>
	</g>
</g>
<g>
	<g>
		<path d="M478.684,62.817l-2.264-3.296c-2.566-3.597-7.562-4.432-11.159-1.866c-3.548,2.532-4.417,7.438-1.953,11.034l2.112,3.08
			c2.472,3.663,7.445,4.628,11.108,2.156C480.191,71.453,481.156,66.48,478.684,62.817z"/>
	</g>
</g>
<g>
</g>
<g>
</g>
<g>
</g>
<g>
</g>
<g>
</g>
<g>
</g>
<g>
</g>
<g>
</g>
<g>
</g>
<g>
</g>
<g>
</g>
<g>
</g>
<g>
</g>
<g>
</g>
<g>
</g>
</svg>
